<svg width="47" height="47" viewBox="0 0 47 47" fill="none" xmlns="http://www.w3.org/2000/svg">
<g clip-path="url(#clip0_983_24894)">
<path d="M1 6.74707V12.4941H6.70117H12.4023V6.74707V1H6.70117H1V6.74707Z" stroke="#BADAC9" stroke-width="2"/>
<path d="M16.7988 6.74707V13.4941H23.5H30.2012V6.74707V5.47618e-07H23.5H16.7988V6.74707Z" fill="#BADAC9"/>
<path d="M38.922 0.137745C36.3517 0.706885 34.3689 2.62544 33.7447 5.14985C33.5336 6.00356 33.5519 7.49067 33.7814 8.39028C34.2679 10.318 35.5347 11.8786 37.3156 12.7598C38.2978 13.2463 39.1148 13.4299 40.299 13.4299C41.474 13.4299 42.1625 13.2739 43.2916 12.7139C46.5595 11.1075 47.9181 7.08677 46.3025 3.78208C45.4855 2.11138 43.9984 0.844581 42.1808 0.27544C41.3455 0.0184087 39.7666 -0.0550287 38.922 0.137745Z" fill="#BADAC9"/>
<path d="M5.05792 16.9825C3.60753 17.3772 2.23057 18.286 1.4044 19.3968C-1.52392 23.344 0.403817 28.8335 5.14972 30.0269C5.79229 30.1921 6.08604 30.2196 7.02237 30.1737C8.88585 30.0911 10.1067 29.5587 11.4286 28.2276C12.8148 26.8507 13.4023 25.437 13.4023 23.5001C13.4023 21.5632 12.8148 20.1495 11.4286 18.7726C10.5474 17.8913 9.86807 17.4599 8.72061 17.0743C7.83936 16.7714 5.99425 16.7255 5.05792 16.9825Z" fill="#BADAC9"/>
<path d="M16.7988 23.5V30.2012H23.5H30.2012V23.5V16.7988H23.5H16.7988V23.5Z" fill="#BADAC9"/>
<path d="M34.5977 23.5V29.2012H40.2988H46V23.5V17.7988H40.2988H34.5977V23.5Z" stroke="#BADAC9" stroke-width="2"/>
<path d="M0 40.2529V47H6.70117H13.4023V40.2529V33.5059H6.70117H0V40.2529Z" fill="#BADAC9"/>
<path d="M20.4015 35.4545C20.9823 35.0813 21.9972 34.6959 22.6498 34.5968C23.046 34.5435 23.2576 34.5242 23.4518 34.5242C23.6461 34.5242 23.8538 34.5436 24.2437 34.5973C27.5406 35.0588 29.7736 38.2429 29.085 41.5152L20.4015 35.4545ZM20.4015 35.4545C20.1692 35.6082 19.6648 36.0484 19.3056 36.4243C18.3192 37.4741 17.7988 38.7964 17.7988 40.2713C17.7988 41.1941 17.9612 41.9051 18.3303 42.6588L18.3303 42.6588L18.3329 42.6641C19.0931 44.2399 20.2687 45.2545 21.96 45.7786L21.9601 45.7785L21.9711 45.7821C22.3987 45.92 22.6022 45.9541 23.5 45.9541C24.6408 45.9541 25.234 45.806 26.1588 45.3238L26.1605 45.3229C27.5972 44.5774 28.7621 43.0442 29.0849 41.5157L20.4015 35.4545Z" stroke="#BADAC9" stroke-width="2"/>
<path d="M33.5977 40.2529V47H40.2988H47V40.2529V33.5059H40.2988H33.5977V40.2529Z" fill="#BADAC9"/>
</g>
<defs>
<clipPath id="clip0_983_24894">
<rect width="47" height="47" fill="white"/>
</clipPath>
</defs>
</svg>
