<svg width="111" height="38" viewBox="0 0 111 38" fill="none" xmlns="http://www.w3.org/2000/svg">
<g clip-path="url(#clip0_771_4800)">
<rect width="111" height="38" fill="#E9E9E9"/>
<path d="M18.104 25L15.448 20.44H13.688V25H12.232V13.848H15.832C16.6747 13.848 17.384 13.992 17.96 14.28C18.5467 14.568 18.984 14.9573 19.272 15.448C19.56 15.9387 19.704 16.4987 19.704 17.128C19.704 17.896 19.48 18.5733 19.032 19.16C18.5947 19.7467 17.9333 20.136 17.048 20.328L19.848 25H18.104ZM13.688 19.272H15.832C16.6213 19.272 17.2133 19.08 17.608 18.696C18.0027 18.3013 18.2 17.7787 18.2 17.128C18.2 16.4667 18.0027 15.9547 17.608 15.592C17.224 15.2293 16.632 15.048 15.832 15.048H13.688V19.272ZM30.4464 20.28C30.4464 20.5573 30.4304 20.8507 30.3984 21.16H23.3904C23.4437 22.024 23.737 22.7013 24.2704 23.192C24.8144 23.672 25.4704 23.912 26.2384 23.912C26.8677 23.912 27.3904 23.768 27.8064 23.48C28.233 23.1813 28.5317 22.7867 28.7024 22.296H30.2704C30.0357 23.1387 29.5664 23.8267 28.8624 24.36C28.1584 24.8827 27.2837 25.144 26.2384 25.144C25.4064 25.144 24.6597 24.9573 23.9984 24.584C23.3477 24.2107 22.8357 23.6827 22.4624 23C22.089 22.3067 21.9024 21.5067 21.9024 20.6C21.9024 19.6933 22.0837 18.8987 22.4464 18.216C22.809 17.5333 23.3157 17.0107 23.9664 16.648C24.6277 16.2747 25.385 16.088 26.2384 16.088C27.0704 16.088 27.8064 16.2693 28.4464 16.632C29.0864 16.9947 29.577 17.496 29.9184 18.136C30.2704 18.7653 30.4464 19.48 30.4464 20.28ZM28.9424 19.976C28.9424 19.4213 28.8197 18.9467 28.5744 18.552C28.329 18.1467 27.993 17.8427 27.5664 17.64C27.1504 17.4267 26.6864 17.32 26.1744 17.32C25.4384 17.32 24.809 17.5547 24.2864 18.024C23.7744 18.4933 23.481 19.144 23.4064 19.976H28.9424ZM32.3042 20.584C32.3042 19.688 32.4856 18.904 32.8482 18.232C33.2109 17.5493 33.7069 17.0213 34.3362 16.648C34.9762 16.2747 35.6856 16.088 36.4642 16.088C37.2322 16.088 37.8989 16.2533 38.4642 16.584C39.0296 16.9147 39.4509 17.3307 39.7282 17.832V16.232H41.2002V25H39.7282V23.368C39.4402 23.88 39.0082 24.3067 38.4322 24.648C37.8669 24.9787 37.2056 25.144 36.4482 25.144C35.6696 25.144 34.9656 24.952 34.3362 24.568C33.7069 24.184 33.2109 23.6453 32.8482 22.952C32.4856 22.2587 32.3042 21.4693 32.3042 20.584ZM39.7282 20.6C39.7282 19.9387 39.5949 19.3627 39.3282 18.872C39.0616 18.3813 38.6989 18.008 38.2402 17.752C37.7922 17.4853 37.2962 17.352 36.7522 17.352C36.2082 17.352 35.7122 17.48 35.2642 17.736C34.8162 17.992 34.4589 18.3653 34.1922 18.856C33.9256 19.3467 33.7922 19.9227 33.7922 20.584C33.7922 21.256 33.9256 21.8427 34.1922 22.344C34.4589 22.8347 34.8162 23.2133 35.2642 23.48C35.7122 23.736 36.2082 23.864 36.7522 23.864C37.2962 23.864 37.7922 23.736 38.2402 23.48C38.6989 23.2133 39.0616 22.8347 39.3282 22.344C39.5949 21.8427 39.7282 21.2613 39.7282 20.6ZM43.5968 20.584C43.5968 19.688 43.7781 18.904 44.1408 18.232C44.5034 17.5493 44.9994 17.0213 45.6288 16.648C46.2688 16.2747 46.9834 16.088 47.7728 16.088C48.4554 16.088 49.0901 16.248 49.6768 16.568C50.2634 16.8773 50.7114 17.288 51.0208 17.8V13.16H52.4928V25H51.0208V23.352C50.7328 23.8747 50.3061 24.3067 49.7408 24.648C49.1754 24.9787 48.5141 25.144 47.7568 25.144C46.9781 25.144 46.2688 24.952 45.6288 24.568C44.9994 24.184 44.5034 23.6453 44.1408 22.952C43.7781 22.2587 43.5968 21.4693 43.5968 20.584ZM51.0208 20.6C51.0208 19.9387 50.8874 19.3627 50.6208 18.872C50.3541 18.3813 49.9914 18.008 49.5328 17.752C49.0848 17.4853 48.5888 17.352 48.0448 17.352C47.5008 17.352 47.0048 17.48 46.5568 17.736C46.1088 17.992 45.7514 18.3653 45.4848 18.856C45.2181 19.3467 45.0848 19.9227 45.0848 20.584C45.0848 21.256 45.2181 21.8427 45.4848 22.344C45.7514 22.8347 46.1088 23.2133 46.5568 23.48C47.0048 23.736 47.5008 23.864 48.0448 23.864C48.5888 23.864 49.0848 23.736 49.5328 23.48C49.9914 23.2133 50.3541 22.8347 50.6208 22.344C50.8874 21.8427 51.0208 21.2613 51.0208 20.6ZM71.4909 13.928V25H70.0349V16.744L66.3549 25H65.3309L61.6349 16.728V25H60.1789V13.928H61.7469L65.8429 23.08L69.9389 13.928H71.4909ZM78.2641 25.144C77.4428 25.144 76.6961 24.9573 76.0241 24.584C75.3628 24.2107 74.8401 23.6827 74.4561 23C74.0828 22.3067 73.8961 21.5067 73.8961 20.6C73.8961 19.704 74.0881 18.9147 74.4721 18.232C74.8668 17.5387 75.4001 17.0107 76.0721 16.648C76.7441 16.2747 77.4961 16.088 78.3281 16.088C79.1601 16.088 79.9121 16.2747 80.5841 16.648C81.2561 17.0107 81.7841 17.5333 82.1681 18.216C82.5628 18.8987 82.7601 19.6933 82.7601 20.6C82.7601 21.5067 82.5575 22.3067 82.1521 23C81.7575 23.6827 81.2188 24.2107 80.5361 24.584C79.8535 24.9573 79.0961 25.144 78.2641 25.144ZM78.2641 23.864C78.7868 23.864 79.2775 23.7413 79.7361 23.496C80.1948 23.2507 80.5628 22.8827 80.8401 22.392C81.1281 21.9013 81.2721 21.304 81.2721 20.6C81.2721 19.896 81.1335 19.2987 80.8561 18.808C80.5788 18.3173 80.2161 17.9547 79.7681 17.72C79.3201 17.4747 78.8348 17.352 78.3121 17.352C77.7788 17.352 77.2881 17.4747 76.8401 17.72C76.4028 17.9547 76.0508 18.3173 75.7841 18.808C75.5175 19.2987 75.3841 19.896 75.3841 20.6C75.3841 21.3147 75.5121 21.9173 75.7681 22.408C76.0348 22.8987 76.3868 23.2667 76.8241 23.512C77.2615 23.7467 77.7415 23.864 78.2641 23.864ZM86.6105 17.656C86.8665 17.1547 87.2292 16.7653 87.6985 16.488C88.1785 16.2107 88.7598 16.072 89.4425 16.072V17.576H89.0585C87.4265 17.576 86.6105 18.4613 86.6105 20.232V25H85.1545V16.232H86.6105V17.656ZM99.6032 20.28C99.6032 20.5573 99.5872 20.8507 99.5552 21.16H92.5472C92.6006 22.024 92.8939 22.7013 93.4272 23.192C93.9712 23.672 94.6272 23.912 95.3952 23.912C96.0246 23.912 96.5472 23.768 96.9632 23.48C97.3899 23.1813 97.6886 22.7867 97.8592 22.296H99.4272C99.1926 23.1387 98.7232 23.8267 98.0192 24.36C97.3152 24.8827 96.4406 25.144 95.3952 25.144C94.5632 25.144 93.8166 24.9573 93.1552 24.584C92.5046 24.2107 91.9926 23.6827 91.6192 23C91.2459 22.3067 91.0592 21.5067 91.0592 20.6C91.0592 19.6933 91.2406 18.8987 91.6032 18.216C91.9659 17.5333 92.4726 17.0107 93.1232 16.648C93.7846 16.2747 94.5419 16.088 95.3952 16.088C96.2272 16.088 96.9632 16.2693 97.6032 16.632C98.2432 16.9947 98.7339 17.496 99.0752 18.136C99.4272 18.7653 99.6032 19.48 99.6032 20.28ZM98.0992 19.976C98.0992 19.4213 97.9766 18.9467 97.7312 18.552C97.4859 18.1467 97.1499 17.8427 96.7232 17.64C96.3072 17.4267 95.8432 17.32 95.3312 17.32C94.5952 17.32 93.9659 17.5547 93.4432 18.024C92.9312 18.4933 92.6379 19.144 92.5632 19.976H98.0992Z" fill="#9A9A9A"/>
</g>
<defs>
<clipPath id="clip0_771_4800">
<rect width="111" height="38" rx="4" fill="white"/>
</clipPath>
</defs>
</svg>
